<svg width="128" height="128" viewBox="0 0 128 128" fill="none" xmlns="http://www.w3.org/2000/svg">
<rect width="128" height="128" rx="24" fill="#0E1B2E"/>
<path d="M90 34C83.6 28.8 74.7 26 64.6 26C41.7 26 23 44.7 23 67.6C23 90.5 41.7 109.2 64.6 109.2C74.7 109.2 83.6 106.4 90 101.2" stroke="#38BDF8" stroke-width="10" stroke-linecap="round" stroke-linejoin="round"/>
<path d="M87.5 48.5C83.3 42.2 74.7 38 66.8 38C52.8 38 41.5 49.3 41.5 63.3C41.5 77.3 52.8 88.6 66.8 88.6C74.7 88.6 83.3 84.4 87.5 78.1" stroke="#A5F3FC" stroke-width="9" stroke-linecap="round" stroke-linejoin="round"/>
<circle cx="92" cy="36" r="6" fill="#38BDF8"/>
</svg>
